<svg xmlns="http://www.w3.org/2000/svg" width="1100" height="350" viewBox="0 0 1100 350" role="img" aria-labelledby="title desc">
  <title id="title">GitHub de pavoneh: 3 proyectos, 0 estrellas</title>
  <desc id="desc">Datos de repositorios públicos propios, sin forks ni archivados. Se excluyen los repositorios de perfil pavoneh y Guillermo1euribe. Lenguajes medidos por bytes de código, no por tiempo de uso. Actualizado: 2026-10-06 · UTC.</desc>
  <defs>
    <linearGradient id="accent" x1="0" y1="0" x2="1" y2="0"><stop stop-color="#43e4dc"/><stop offset="1" stop-color="#a78bfa"/></linearGradient>
    <radialGradient id="glow"><stop stop-color="#43e4dc" stop-opacity=".08"/><stop offset="1" stop-color="#43e4dc" stop-opacity="0"/></radialGradient>
    <clipPath id="card"><rect x=".5" y=".5" width="1099" height="349" rx="20"/></clipPath>
    <clipPath id="bar"><rect x="490" y="124" width="560" height="10" rx="5"/></clipPath>
    <style>text { font-family: -apple-system, BlinkMacSystemFont, 'Segoe UI', Arial, sans-serif; } .muted { fill: #8b949e; } .label { fill: #c9d1d9; font-size: 14px; } .metric { fill: #f0f6fc; font-size: 50px; font-weight: 700; } .tiny { font-size: 12px; }</style>
  </defs>
  <rect x=".5" y=".5" width="1099" height="349" rx="20" fill="#0d1117" stroke="#27303c"/>
  <g clip-path="url(#card)">
    <ellipse cx="130" cy="0" rx="360" ry="250" fill="url(#glow)"/>
    <rect x="35" y="0" width="160" height="3" fill="url(#accent)"/>
  </g>
  <circle cx="41" cy="43" r="4" fill="#43e4dc"/>
  <text x="54" y="48" fill="#43e4dc" font-size="13" font-weight="600" letter-spacing="2">GITHUB / SNAPSHOT</text>
  <text x="1050" y="48" text-anchor="end" class="muted tiny">2026-10-06 · UTC</text>
  <text x="36" y="105" fill="#f0f6fc" font-size="27" font-weight="650">Código en movimiento.</text>
  <text x="36" y="131" class="muted" font-size="14">Lo que estoy construyendo en público.</text>
  <text x="36" y="215" class="metric">3</text>
  <text x="36" y="241" class="label">Proyectos públicos</text>
  <text x="252" y="215" class="metric">0</text>
  <text x="252" y="241" class="label">Estrellas recibidas</text>
  <line x1="452" y1="84" x2="452" y2="267" stroke="#27303c"/>
  <text x="490" y="100" fill="#f0f6fc" font-size="17" font-weight="600">Lenguajes de código · por bytes</text>
  <rect x="490" y="124" width="560" height="10" rx="5" fill="#21262d"/>
  <rect x="490.000" y="124" width="418.358" height="10" fill="#43e4dc" clip-path="url(#bar)"/>
  <rect x="908.358" y="124" width="124.748" height="10" fill="#a78bfa" clip-path="url(#bar)"/>
  <rect x="1033.106" y="124" width="16.894" height="10" fill="#f0c674" clip-path="url(#bar)"/>
  <circle cx="494" cy="162" r="4" fill="#43e4dc"/>
  <text x="506" y="166" class="label">HTML</text>
  <text x="760" y="166" text-anchor="end" fill="#43e4dc" font-size="14" font-weight="600">74.7%</text>
  <text x="506" y="183" class="muted tiny">118,125 bytes</text>
  <circle cx="784" cy="162" r="4" fill="#a78bfa"/>
  <text x="796" y="166" class="label">CSS</text>
  <text x="1050" y="166" text-anchor="end" fill="#a78bfa" font-size="14" font-weight="600">22.3%</text>
  <text x="796" y="183" class="muted tiny">35,223 bytes</text>
  <circle cx="494" cy="205" r="4" fill="#f0c674"/>
  <text x="506" y="209" class="label">JavaScript</text>
  <text x="760" y="209" text-anchor="end" fill="#f0c674" font-size="14" font-weight="600">3.0%</text>
  <text x="506" y="226" class="muted tiny">4,770 bytes</text>
  <line x1="36" y1="291" x2="1064" y2="291" stroke="#21262d"/>
  <text x="36" y="317" class="muted tiny">Fuente: GitHub API · Repositorios públicos propios · Sin forks, archivados ni repositorios de perfil</text>
  <text x="1064" y="317" text-anchor="end" fill="#a78bfa" font-size="12">@pavoneh</text>
</svg>
